<svg preserveAspectRatio="none" overflow="visible" style="display: block;" width="36.2929" height="43.5526" viewBox="0 0 36.2929 43.5526" fill="none" xmlns="http://www.w3.org/2000/svg">
<g id="Group 807">
<circle id="Ellipse 543" cx="5.05265" cy="4.16508" r="4.13458" fill="#0ABAB5"/>
<circle id="Ellipse 544" cx="32.1583" cy="39.418" r="4.13458" fill="#0ABAB5"/>
<path id="Subtract" d="M32.1269 0C33.1106 0 34.2528 0.247343 35.1336 1.12781C36.0144 2.00829 36.2618 3.15023 36.2618 4.13368C36.2618 4.8223 36.1404 5.58856 35.7653 6.28842C35.6931 6.44163 35.603 6.58728 35.4957 6.72192L35.414 6.82448C35.4073 6.83298 35.4006 6.8415 35.3937 6.84996L12.7364 35.2836H22.2797V35.2848C22.3243 35.2833 22.369 35.2826 22.414 35.2826C25.0993 35.2826 26.5225 37.175 26.5225 39.4434C26.5225 41.7118 25.0993 43.5509 22.414 43.5508C22.369 43.5508 22.3243 43.5499 22.2797 43.5485V43.5509H4.13488C3.15114 43.5509 2.0089 43.3035 1.12815 42.423C0.247403 41.5426 1.09928e-06 40.4007 0 39.4172C0 38.4338 0.247406 37.2919 1.12815 36.4114C1.13 36.4096 1.13186 36.4077 1.13371 36.4059L23.7088 8.26735H15.0559C14.9672 8.27323 14.8778 8.27627 14.7876 8.27627C12.1023 8.27627 10.6791 6.38378 10.6791 4.11538C10.6791 1.93164 11.9981 0.145896 14.4923 0.0157296V0H32.1269Z" fill="#0ABAB5"/>
</g>
</svg>
