<svg width="19" height="19" viewBox="0 0 19 19" fill="none" xmlns="http://www.w3.org/2000/svg">
<path d="M9.38867 12.7501V14.3729" stroke="#222222" stroke-width="1.15909" stroke-linecap="round" stroke-linejoin="round"/>
<path d="M5.52539 17.0001H13.2527V16.2274C13.2527 15.3774 12.5572 14.682 11.7072 14.682H7.07084C6.22084 14.682 5.52539 15.3774 5.52539 16.2274V17.0001V17.0001Z" stroke="#222222" stroke-width="1.15909" stroke-miterlimit="10"/>
<path d="M4.75195 17.0001H14.0247" stroke="#222222" stroke-width="1.15909" stroke-linecap="round" stroke-linejoin="round"/>
<path d="M9.27237 12.3638C6.28192 12.3638 3.86328 9.94514 3.86328 6.95468V4.6365C3.86328 2.92878 5.24646 1.54559 6.95419 1.54559H11.5906C13.2983 1.54559 14.6815 2.92878 14.6815 4.6365V6.95468C14.6815 9.94514 12.2628 12.3638 9.27237 12.3638Z" stroke="#222222" stroke-width="1.15909" stroke-linecap="round" stroke-linejoin="round"/>
<path d="M4.22663 9.0021C3.64708 8.81665 3.13708 8.47665 2.73526 8.07483C2.03981 7.3021 1.57617 6.37483 1.57617 5.29301C1.57617 4.21119 2.42617 3.36119 3.50799 3.36119H4.01026C3.85572 3.71665 3.77844 4.11074 3.77844 4.52028V6.83846C3.77844 7.61119 3.94072 8.33755 4.22663 9.0021Z" stroke="#222222" stroke-width="1.15909" stroke-linecap="round" stroke-linejoin="round"/>
<path d="M14.3184 9.0021C14.8979 8.81665 15.4079 8.47665 15.8097 8.07483C16.5052 7.3021 16.9688 6.37483 16.9688 5.29301C16.9688 4.21119 16.1188 3.36119 15.037 3.36119H14.5347C14.6893 3.71665 14.7665 4.11074 14.7665 4.52028V6.83846C14.7665 7.61119 14.6043 8.33755 14.3184 9.0021Z" stroke="#222222" stroke-width="1.15909" stroke-linecap="round" stroke-linejoin="round"/>
</svg>
